<svg xmlns="http://www.w3.org/2000/svg" width="680" height="420" viewBox="0 0 680 420">
<rect x="0" y="0" width="680" height="420" fill="#1d2732"/>
<g stroke="#2c3844" stroke-width="1">
<line x1="0" y1="105" x2="680" y2="105"/><line x1="0" y1="210" x2="680" y2="210"/><line x1="0" y1="315" x2="680" y2="315"/>
<line x1="170" y1="0" x2="170" y2="420"/><line x1="340" y1="0" x2="340" y2="420"/><line x1="510" y1="0" x2="510" y2="420"/>
</g>
<text x="36" y="48" font-family="monospace" font-size="13" letter-spacing="2" fill="#6b7683">PORTFOLIO / 2026</text>
<text x="644" y="48" text-anchor="end" font-family="monospace" font-size="16" letter-spacing="2" fill="#ffe14d">CASE 03</text>

<path d="M300 200 h80 l14 90 h-108 z" fill="none" stroke="#fbfaf8" stroke-width="2.5"/>
<rect x="316" y="150" width="20" height="34" fill="#fbfaf8"/>
<line x1="326" y1="184" x2="326" y2="200" stroke="#fbfaf8" stroke-width="2.5"/>
<rect x="348" y="158" width="16" height="26" rx="8" fill="none" stroke="#fbfaf8" stroke-width="2"/>
<line x1="356" y1="184" x2="356" y2="200" stroke="#fbfaf8" stroke-width="2"/>
<rect x="306" y="222" width="68" height="14" rx="3" fill="#ffe14d"/>
<g stroke="#ffe14d" stroke-width="2.5" stroke-linecap="round">
<line x1="160" y1="150" x2="176" y2="166"/><line x1="184" y1="142" x2="184" y2="164"/><line x1="208" y1="150" x2="192" y2="166"/>
</g>
<g stroke="#8a94a0" stroke-width="2.5" stroke-linecap="round">
<line x1="500" y1="120" x2="516" y2="136"/><line x1="524" y1="112" x2="524" y2="134"/><line x1="548" y1="120" x2="532" y2="136"/>
</g>
<line x1="120" y1="290" x2="560" y2="290" stroke="#3d4a58" stroke-width="2"/>
<text x="36" y="366" font-family="'Noto Sans TC','PingFang TC',sans-serif" font-size="22" font-weight="500" fill="#fbfaf8">公關活動</text>
<text x="36" y="392" font-family="monospace" font-size="12" letter-spacing="1.5" fill="#8a94a0">PRESS CONFERENCE / CEREMONY</text>
</svg>