<svg xmlns="http://www.w3.org/2000/svg" width="680" height="420" viewBox="0 0 680 420">
<rect x="0" y="0" width="680" height="420" fill="#1d2732"/>
<g stroke="#2c3844" stroke-width="1">
<line x1="0" y1="105" x2="680" y2="105"/><line x1="0" y1="210" x2="680" y2="210"/><line x1="0" y1="315" x2="680" y2="315"/>
<line x1="170" y1="0" x2="170" y2="420"/><line x1="340" y1="0" x2="340" y2="420"/><line x1="510" y1="0" x2="510" y2="420"/>
</g>
<text x="36" y="48" font-family="monospace" font-size="13" letter-spacing="2" fill="#6b7683">PORTFOLIO / 2026</text>
<text x="644" y="48" text-anchor="end" font-family="monospace" font-size="16" letter-spacing="2" fill="#ffe14d">CASE 06</text>

<line x1="110" y1="290" x2="110" y2="130" stroke="#fbfaf8" stroke-width="2"/>
<line x1="110" y1="290" x2="300" y2="290" stroke="#fbfaf8" stroke-width="2"/>
<polyline points="130,265 165,240 200,255 235,205 270,175 295,150" fill="none" stroke="#ffe14d" stroke-width="2.5" stroke-linecap="round" stroke-linejoin="round"/>
<circle cx="130" cy="265" r="4" fill="#1d2732" stroke="#fbfaf8" stroke-width="2"/>
<circle cx="165" cy="240" r="4" fill="#1d2732" stroke="#fbfaf8" stroke-width="2"/>
<circle cx="200" cy="255" r="4" fill="#1d2732" stroke="#fbfaf8" stroke-width="2"/>
<circle cx="235" cy="205" r="4" fill="#1d2732" stroke="#fbfaf8" stroke-width="2"/>
<circle cx="270" cy="175" r="4" fill="#1d2732" stroke="#fbfaf8" stroke-width="2"/>

<circle cx="295" cy="150" r="38" fill="none" stroke="#fbfaf8" stroke-width="2.5"/>
<line x1="322" y1="177" x2="352" y2="207" stroke="#fbfaf8" stroke-width="5" stroke-linecap="round"/>
<circle cx="295" cy="150" r="7" fill="#ffe14d"/>

<rect x="420" y="128" width="180" height="112" rx="14" fill="none" stroke="#fbfaf8" stroke-width="2.5"/>
<path d="M450 240 L432 270 L468 242 Z" fill="#fbfaf8"/>
<circle cx="480" cy="184" r="6.5" fill="#ffe14d"/>
<circle cx="510" cy="184" r="6.5" fill="#ffe14d"/>
<circle cx="540" cy="184" r="6.5" fill="#ffe14d"/>

<text x="36" y="366" font-family="'Noto Sans TC','PingFang TC',sans-serif" font-size="22" font-weight="500" fill="#fbfaf8">志祺七七頻道內容策略分析</text>
<text x="36" y="392" font-family="monospace" font-size="12" letter-spacing="1.5" fill="#8a94a0">CONTENT STRATEGY / ISSUE PLANNING</text>
</svg>
