<svg xmlns="http://www.w3.org/2000/svg" width="680" height="420" viewBox="0 0 680 420">
<rect x="0" y="0" width="680" height="420" fill="#1d2732"/>
<g stroke="#2c3844" stroke-width="1">
<line x1="0" y1="105" x2="680" y2="105"/><line x1="0" y1="210" x2="680" y2="210"/><line x1="0" y1="315" x2="680" y2="315"/>
<line x1="170" y1="0" x2="170" y2="420"/><line x1="340" y1="0" x2="340" y2="420"/><line x1="510" y1="0" x2="510" y2="420"/>
</g>
<text x="36" y="48" font-family="monospace" font-size="13" letter-spacing="2" fill="#6b7683">PORTFOLIO / 2026</text>
<text x="644" y="48" text-anchor="end" font-family="monospace" font-size="16" letter-spacing="2" fill="#ffe14d">CASE 04</text>

<rect x="230" y="96" width="220" height="140" rx="6" fill="none" stroke="#fbfaf8" stroke-width="2.5"/>
<line x1="284" y1="236" x2="264" y2="276" stroke="#fbfaf8" stroke-width="2.5" stroke-linecap="round"/>
<line x1="396" y1="236" x2="416" y2="276" stroke="#fbfaf8" stroke-width="2.5" stroke-linecap="round"/>
<text x="296" y="178" font-family="monospace" font-size="36" font-weight="500" fill="#ffe14d">&lt;/&gt;</text>
<rect x="252" y="196" width="120" height="9" rx="3" fill="#3d4a58"/>
<g fill="none" stroke="#8a94a0" stroke-width="2">
<circle cx="150" cy="320" r="12"/><circle cx="230" cy="320" r="12"/><circle cx="310" cy="320" r="12"/><circle cx="390" cy="320" r="12"/><circle cx="470" cy="320" r="12"/><circle cx="550" cy="320" r="12"/>
</g>
<text x="36" y="366" font-family="'Noto Sans TC','PingFang TC',sans-serif" font-size="22" font-weight="500" fill="#fbfaf8">T 客邦 技術課程開發與行銷</text>
<text x="36" y="392" font-family="monospace" font-size="12" letter-spacing="1.5" fill="#8a94a0">100+ WORKSHOPS / ONLINE COURSES</text>
</svg>