<svg xmlns="http://www.w3.org/2000/svg" width="680" height="420" viewBox="0 0 680 420">
<rect x="0" y="0" width="680" height="420" fill="#1d2732"/>
<g stroke="#2c3844" stroke-width="1">
<line x1="0" y1="105" x2="680" y2="105"/><line x1="0" y1="210" x2="680" y2="210"/><line x1="0" y1="315" x2="680" y2="315"/>
<line x1="170" y1="0" x2="170" y2="420"/><line x1="340" y1="0" x2="340" y2="420"/><line x1="510" y1="0" x2="510" y2="420"/>
</g>
<text x="36" y="48" font-family="monospace" font-size="13" letter-spacing="2" fill="#6b7683">PORTFOLIO / 2026</text>
<text x="644" y="48" text-anchor="end" font-family="monospace" font-size="16" letter-spacing="2" fill="#ffe14d">CASE 02</text>

<rect x="110" y="112" width="100" height="180" rx="14" fill="none" stroke="#fbfaf8" stroke-width="2.5"/>
<line x1="142" y1="132" x2="178" y2="132" stroke="#fbfaf8" stroke-width="2.5" stroke-linecap="round"/>
<circle cx="160" cy="272" r="7" fill="none" stroke="#fbfaf8" stroke-width="2"/>
<path d="M160 158 c-14 0 -23 10 -23 21 c0 15 23 34 23 34 c0 0 23 -19 23 -34 c0 -11 -9 -21 -23 -21 z" fill="#ffe14d"/>
<circle cx="160" cy="180" r="7" fill="#1d2732"/>
<rect x="134" y="228" width="52" height="8" rx="3" fill="#3d4a58"/>

<path d="M470 108 c-10 0 -17 8 -17 16 c0 11 17 26 17 26 c0 0 17 -15 17 -26 c0 -8 -7 -16 -17 -16 z" fill="#ffe14d"/>
<circle cx="470" cy="125" r="5" fill="#1d2732"/>

<path d="M396 216 L470 166 L544 216 Z" fill="#c8452a"/>
<path d="M396 216 a12.3 13 0 0 0 24.6 0 a12.4 13 0 0 0 24.7 0 a12.3 13 0 0 0 24.7 0 a12.3 13 0 0 0 24.7 0 a12.4 13 0 0 0 24.7 0 a12.3 13 0 0 0 24.6 0 Z" fill="#c8452a"/>
<line x1="410" y1="232" x2="410" y2="296" stroke="#fbfaf8" stroke-width="2.5"/>
<line x1="530" y1="232" x2="530" y2="296" stroke="#fbfaf8" stroke-width="2.5"/>
<rect x="428" y="250" width="84" height="46" fill="none" stroke="#fbfaf8" stroke-width="2.5"/>
<circle cx="470" cy="273" r="13" fill="#ffe14d"/>
<circle cx="465" cy="270" r="1.7" fill="#1d2732"/>
<circle cx="475" cy="270" r="1.7" fill="#1d2732"/>
<path d="M463 277 q7 6 14 0" fill="none" stroke="#1d2732" stroke-width="2" stroke-linecap="round"/>
<line x1="380" y1="296" x2="560" y2="296" stroke="#3d4a58" stroke-width="2"/>

<path d="M252 160 q94 -50 128 -12" fill="none" stroke="#ffe14d" stroke-width="2" stroke-dasharray="6 6"/>
<path d="M372 142 l14 8 -16 8 z" fill="#ffe14d"/>
<path d="M368 268 q-94 50 -128 12" fill="none" stroke="#ffe14d" stroke-width="2" stroke-dasharray="6 6"/>
<path d="M248 286 l-14 -8 16 -8 z" fill="#ffe14d"/>
<text x="36" y="366" font-family="'Noto Sans TC','PingFang TC',sans-serif" font-size="22" font-weight="500" fill="#fbfaf8">MIT × OMO 實體推廣</text>
<text x="36" y="392" font-family="monospace" font-size="12" letter-spacing="1.5" fill="#8a94a0">CHECK-IN / BOOTH EXPERIENCE</text>
</svg>